
<svg xmlns="http://www.w3.org/2000/svg" width="12" height="12" viewBox="0 0 12 12">
  <g  transform="translate(-2.35 -2.35)">
    <path id="Caminho_707" data-name="Caminho 707" d="M16.457,9.487a.607.607,0,0,1-.429-1.037L21.95,2.528a.607.607,0,0,1,.859.859L16.887,9.309A.605.605,0,0,1,16.457,9.487Z" transform="translate(-8.637 0)" fill="#fff"/>
    <path id="Caminho_708" data-name="Caminho 708" d="M13.763,2.35a.586.586,0,0,1,.554.78L10.528,13.957A.586.586,0,0,1,9.438,14L7.364,9.336,2.7,7.262a.586.586,0,0,1,.044-1.089L13.57,2.383A.586.586,0,0,1,13.763,2.35ZM9.909,12.174l2.9-8.281-8.281,2.9,3.52,1.565a.587.587,0,0,1,.3.3Z" transform="translate(0 0)" fill="#fff"/>
  </g>
</svg>
